<?xml version="1.0" standalone="no"?>
<!DOCTYPE svg PUBLIC "-//W3C//DTD SVG 20010904//EN"
 "http://www.w3.org/TR/2001/REC-SVG-20010904/DTD/svg10.dtd">
<svg version="1.0" xmlns="http://www.w3.org/2000/svg"
 width="300.000000pt" height="300.000000pt" viewBox="0 0 300.000000 300.000000"
 preserveAspectRatio="xMidYMid meet">
<metadata>
Created by potrace 1.11, written by Peter Selinger 2001-2013
</metadata>
<g transform="translate(0.000000,300.000000) scale(0.100000,-0.100000)"
fill="#000000" stroke="none">
<path d="M1133 2791 c-56 -41 -106 -102 -149 -184 -50 -96 -119 -167 -217
-223 -95 -55 -161 -114 -189 -168 l-20 -39 55 7 c73 8 218 60 289 102 78 48
161 140 203 229 33 69 85 243 85 286 0 26 -10 24 -57 -10z"/>
<path d="M1240 2798 c0 -52 43 -198 82 -278 56 -117 142 -202 258 -258 82 -39
228 -82 278 -82 l23 0 -22 39 c-33 59 -84 104 -184 161 -115 66 -171 121 -231
228 -56 100 -105 158 -163 190 l-41 23 0 -23z"/>
<path d="M560 2123 c0 -20 63 -104 98 -131 20 -16 70 -48 111 -72 116 -67 153
-107 220 -239 62 -121 81 -141 165 -175 l39 -16 -7 51 c-10 72 -53 204 -90
274 -39 74 -133 171 -207 213 -94 53 -329 121 -329 95z"/>
<path d="M1755 2110 c-203 -53 -334 -143 -415 -284 -50 -89 -121 -336 -96
-336 3 0 26 9 50 21 61 28 99 74 148 176 50 107 120 180 226 237 40 22 91 56
114 75 41 35 98 106 98 123 0 13 -49 9 -125 -12z"/>
<path d="M2116 2043 c-4 -5 -11 -8 -14 -8 -14 -1 -58 -29 -85 -53 -15 -14 -45
-62 -66 -106 -60 -123 -101 -168 -226 -251 -111 -73 -152 -110 -181 -167 l-15
-29 38 7 c221 40 396 159 475 324 33 69 68 179 82 258 6 33 4 37 -8 25z"/>
<path d="M2186 2003 c14 -78 65 -220 99 -278 47 -79 112 -144 188 -189 60 -35
203 -87 280 -100 l39 -7 -19 32 c-30 53 -96 111 -181 162 -103 61 -159 116
-219 219 -52 89 -112 157 -162 183 l-32 16 7 -38z"/>
<path d="M785 1473 c-54 -28 -116 -97 -163 -182 -65 -116 -101 -154 -200 -212
-98 -57 -165 -116 -193 -171 -10 -21 -19 -40 -19 -43 0 -23 181 24 288 75 180
86 283 246 327 508 7 46 4 49 -40 25z"/>
<path d="M874 1444 c21 -144 88 -301 165 -385 62 -69 152 -122 266 -158 98
-31 195 -48 195 -34 0 18 -57 99 -91 128 -19 17 -76 55 -128 85 -109 64 -165
126 -207 229 -34 87 -74 136 -127 154 -23 8 -50 18 -61 23 -17 7 -18 4 -12
-42z"/>
<path d="M1530 1371 c0 -10 30 -53 64 -90 17 -18 74 -62 126 -96 110 -72 160
-122 221 -226 48 -81 109 -148 158 -174 l32 -16 -7 38 c-11 67 -64 216 -97
273 -78 139 -228 236 -434 284 -35 8 -63 11 -63 7z"/>
<path d="M2695 1359 c-44 -11 -122 -40 -172 -64 -185 -90 -277 -226 -337 -498
l-7 -28 32 16 c49 26 112 95 159 176 60 101 118 160 219 221 47 29 105 71 128
94 40 41 81 105 66 103 -5 0 -44 -9 -88 -20z"/>
<path d="M210 807 c0 -21 57 -103 92 -132 17 -15 66 -47 110 -72 99 -57 152
-110 203 -203 22 -40 57 -92 78 -117 39 -44 123 -100 134 -90 9 9 -17 135 -44
212 -75 212 -209 331 -438 388 -106 26 -135 29 -135 14z"/>
<path d="M1364 795 c-277 -71 -418 -222 -480 -512 -9 -46 -15 -86 -12 -89 10
-9 67 25 114 68 24 22 66 79 93 127 60 103 120 164 221 221 41 23 90 57 109
74 33 30 91 112 91 128 0 13 -40 8 -136 -17z"/>
</g>
</svg>
